PathFileType	4	(X/Y/Z)	/Users/itak/Documents/Research/Walk-IL/dataset/trc/00004_00004.trc
DataRate	CameraRate	NumFrames	NumMarkers	Units	OrigDataRate	OrigDataStartFrame	OrigNumFrames
100.000000	100.000000	4	53	mm	100.000000	141	566
Frame#	Time	RPSI			LPSI			L3			STRN			T10			C7			CLAV			RBAK			LBAK			LSHO			LUPA			LAEL			LAOL			LWTS			LWPS			LFRA			LIFD			LHPS			LHTS			RSHO			RUPA			RAEL			RAOL			RWTS			RWPS			RFRA			RIFD			RHTS			RHPS			RBHD			LFHD			RFHD			LBHD			LHIP			RHIP			RASI			LASI			LKNE			LTHI			LANK			LTIP			LTOE			LMT1			LMT5			LHEE			RKNE			RTHI			RANK			RTIP			RTOE			RMT1			RMT5			RHEE			
		X1	Y1	Z1	X2	Y2	Z2	X3	Y3	Z3	X4	Y4	Z4	X5	Y5	Z5	X6	Y6	Z6	X7	Y7	Z7	X8	Y8	Z8	X9	Y9	Z9	X10	Y10	Z10	X11	Y11	Z11	X12	Y12	Z12	X13	Y13	Z13	X14	Y14	Z14	X15	Y15	Z15	X16	Y16	Z16	X17	Y17	Z17	X18	Y18	Z18	X19	Y19	Z19	X20	Y20	Z20	X21	Y21	Z21	X22	Y22	Z22	X23	Y23	Z23	X24	Y24	Z24	X25	Y25	Z25	X26	Y26	Z26	X27	Y27	Z27	X28	Y28	Z28	X29	Y29	Z29	X30	Y30	Z30	X31	Y31	Z31	X32	Y32	Z32	X33	Y33	Z33	X34	Y34	Z34	X35	Y35	Z35	X36	Y36	Z36	X37	Y37	Z37	X38	Y38	Z38	X39	Y39	Z39	X40	Y40	Z40	X41	Y41	Z41	X42	Y42	Z42	X43	Y43	Z43	X44	Y44	Z44	X45	Y45	Z45	X46	Y46	Z46	X47	Y47	Z47	X48	Y48	Z48	X49	Y49	Z49	X50	Y50	Z50	X51	Y51	Z51	X52	Y52	Z52	X53	Y53	Z53	

142	1.41	-1200.345581054688	1073.133911132812	-132.5150146484375	-1211.175415039062	1071.99951171875	-295.5289001464844	-1208.192993164062	1139.259399414062	-220.6564025878906	-974.6207885742188	1318.28759765625	-224.982421875	-1227.59765625	1278.154418945312	-221.1690216064453	-1170.572509765625	1543.041259765625	-236.5352172851562	-1012.591674804688	1446.265747070312	-230.2129364013672	-1223.795654296875	1409.146850585938	-154.8391723632812	-1188.155517578125	1500.692260742188	-333.9320983886719	-1085.400390625	1504.90576171875	-409.1308898925781	-1119.078002929688	1379.15478515625	-484.3392028808594	-1127.077026367188	1160.267211914062	-503.5332336425781	-1186.89404296875	1152.68017578125	-415.4424133300781	-1052.84326171875	905.809814453125	-438.8392944335938	-1128.849243164062	893.2948608398438	-482.6454162597656	-1119.650146484375	1043.8154296875	-505.9701232910156	-1022.161926269531	725.7271118164062	-420.0666198730469	-1098.845825195312	802.9192504882812	-478.560791015625	-1033.471069335938	812.0523681640625	-450.54638671875	-1092.061645507812	1530.584716796875	-61.74783325195312	-1106.305053710938	1459.00732421875	12.06581401824951	-1143.198364257812	1189.137451171875	34.27462768554688	-1151.383911132812	1162.744018554688	-62.51664352416992	-1019.607299804688	930.1483154296875	-5.20503044128418	-1081.586669921875	914.07666015625	60.49169921875	-1130.033813476562	1113.0771484375	47.74828720092773	-1004.633544921875	743.0634765625	-25.30620574951172	-987.5068359375	817.8717041015625	4.653286933898926	-1042.018432617188	813.267333984375	55.72114181518555	-1118.244262695312	1725.15185546875	-300.9649353027344	-926.2770385742188	1733.048095703125	-196.5036926269531	-935.59619140625	1729.307861328125	-294.6413879394531	-1097.841796875	1725.873657226562	-157.7284545898438	-1126.8310546875	968.19921875	-410.6701049804688	-1088.322509765625	958.9439086914062	-36.7122802734375	-986.9107055664062	987.3383178710938	-118.4596099853516	-1005.198364257812	1006.362609863281	-352.4781188964844	-1093.197998046875	518.6427612304688	-381.2056579589844	-1117.2529296875	657.706298828125	-410.6563415527344	-1215.605346679688	40.93724822998047	-391.2876586914062	-1190.269409179688	292.5533447265625	-401.1734008789062	-995.5065307617188	41.63542556762695	-328.4758911132812	-1054.740966796875	51.03173446655273	-311.4755554199219	-1091.069702148438	39.10331344604492	-412.0627136230469	-1284.98779296875	50.04509353637695	-336.42333984375	-1098.123413085938	522.6392822265625	-101.7443389892578	-1070.138671875	789.3259887695312	-46.81508255004883	-1230.478515625	45.12725830078125	-138.4263458251953	-1128.306762695312	400.1807556152344	-103.949951171875	-999.25048828125	45.7911376953125	-179.3138122558594	-1060.645141601562	51.48587036132812	-209.2668914794922	-1080.961547851562	45.1052360534668	-114.0414810180664	-1285.637084960938	46.26365661621094	-184.4640808105469	
143	1.42	-1199.383666992188	1073.027954101562	-131.2775421142578	-1210.210571289062	1071.983764648438	-294.2884826660156	-1207.107055664062	1139.270141601562	-219.3931427001953	-973.2868041992188	1317.98193359375	-223.6023712158203	-1226.33154296875	1278.23095703125	-219.9713287353516	-1168.938232421875	1543.031005859375	-235.3137359619141	-1011.11083984375	1446.03466796875	-228.8795166015625	-1222.4033203125	1409.213012695312	-153.6610412597656	-1186.44580078125	1500.69775390625	-332.7926635742188	-1083.677856445312	1504.738037109375	-407.8531494140625	-1117.4765625	1379.05078125	-483.0651245117188	-1125.865600585938	1160.262817382812	-502.4757385253906	-1185.6796875	1152.679809570312	-414.3948974609375	-1051.910400390625	905.6749877929688	-438.0153198242188	-1127.955932617188	893.2710571289062	-481.80615234375	-1118.59716796875	1043.79296875	-505.0142822265625	-1021.151916503906	725.703369140625	-419.4725341796875	-1098.048583984375	802.8452758789062	-477.7810363769531	-1032.645629882812	811.9188232421875	-449.7796020507812	-1090.546264648438	1530.472900390625	-60.49070739746094	-1104.964111328125	1458.940795898438	13.31235408782959	-1142.313720703125	1189.11865234375	35.55077743530273	-1150.550415039062	1162.7353515625	-61.25033187866211	-1018.785461425781	930.1431274414062	-4.074963092803955	-1080.686889648438	914.0029907226562	61.63985061645508	-1129.220336914062	1113.022094726562	49.00428009033203	-1003.775939941406	743.0538940429688	-24.23614883422852	-986.5565795898438	817.8763427734375	5.73231315612793	-1041.154296875	813.2162475585938	56.83464813232422	-1116.662963867188	1724.847534179688	-299.7792358398438	-924.8107299804688	1733.014282226562	-195.2147827148438	-934.0298461914062	1729.241943359375	-293.3713989257812	-1096.34619140625	1725.665283203125	-156.5445251464844	-1125.784301757812	968.2608642578125	-409.4879760742188	-1087.470581054688	958.637939453125	-35.44004440307617	-986.2406616210938	986.90966796875	-117.1666259765625	-1004.20263671875	1006.310424804688	-351.15283203125	-1090.617431640625	518.68994140625	-380.6134948730469	-1115.229858398438	657.7603759765625	-409.9399719238281	-1215.522705078125	40.98977279663086	-391.240234375	-1188.71240234375	292.5173645019531	-400.8341979980469	-995.5112915039062	41.67956161499023	-328.4983520507812	-1054.776123046875	51.00444793701172	-311.4450378417969	-1091.020629882812	39.12911605834961	-412.0028076171875	-1284.938720703125	50.14126968383789	-336.4001770019531	-1097.721801757812	522.4007568359375	-100.9529571533203	-1069.343505859375	789.0211791992188	-45.80178070068359	-1230.56298828125	45.06838226318359	-138.3527221679688	-1128.003295898438	399.9531555175781	-103.3149642944336	-999.3079223632812	45.80863952636719	-179.331298828125	-1060.664184570312	51.49962615966797	-209.2375640869141	-1080.977661132812	45.10388946533203	-114.0056533813477	-1285.689453125	46.25543594360352	-184.3689117431641	
144	1.43	-1198.394409179688	1072.904541015625	-130.0488433837891	-1209.2099609375	1071.946411132812	-293.0588989257812	-1205.98681640625	1139.256591796875	-218.1376342773438	-971.9307861328125	1317.675048828125	-222.2145843505859	-1225.045654296875	1278.277954101562	-218.7708740234375	-1167.290771484375	1542.991943359375	-234.0988922119141	-1009.623962402344	1445.792358398438	-227.5491790771484	-1220.997314453125	1409.253295898438	-152.4731292724609	-1184.7490234375	1500.678100585938	-331.6413269042969	-1081.966430664062	1504.5556640625	-406.5737915039062	-1115.898193359375	1378.933715820312	-481.7847290039062	-1124.677856445312	1160.242919921875	-501.4151611328125	-1184.460571289062	1152.657836914062	-413.330078125	-1050.903930664062	905.5429077148438	-437.2196044921875	-1127.029296875	893.2367553710938	-480.9646911621094	-1117.54931640625	1043.761840820312	-504.0586242675781	-1020.073547363281	725.7079467773438	-418.8915405273438	-1097.181884765625	802.7600708007812	-477.0034790039062	-1031.778076171875	811.7902221679688	-449.0275268554688	-1089.026489257812	1530.351806640625	-59.22518157958984	-1103.606689453125	1458.860595703125	14.56278514862061	-1141.399169921875	1189.088989257812	36.83632278442383	-1149.681762695312	1162.715087890625	-59.97468566894531	-1017.951965332031	930.1161499023438	-2.93462872505188	-1079.781616210938	913.9169311523438	62.80492782592773	-1128.377807617188	1112.957275390625	50.2691650390625	-1002.952331542969	742.99658203125	-23.15200805664062	-985.644775390625	817.85791015625	6.824790954589844	-1040.300903320312	813.1492309570312	57.97317123413086	-1115.082153320312	1724.527954101562	-298.6027221679688	-923.3558349609375	1732.956420898438	-193.9151306152344	-932.475341796875	1729.148803710938	-292.0911254882812	-1094.845581054688	1725.441040039062	-155.3662261962891	-1124.67724609375	968.3073120117188	-408.3124694824219	-1086.60595703125	958.31982421875	-34.1612434387207	-985.5156860351562	986.5064697265625	-115.8418197631836	-1003.154724121094	1006.251342773438	-349.8097839355469	-1087.678100585938	518.7363891601562	-380.0385131835938	-1112.932739257812	657.8077392578125	-409.2288818359375	-1215.414916992188	41.07706069946289	-391.1853942871094	-1186.935791015625	292.4690551757812	-400.513916015625	-995.5128784179688	41.72557830810547	-328.5176086425781	-1054.813720703125	50.96760940551758	-311.4065551757812	-1090.957641601562	39.1599006652832	-411.9295959472656	-1284.890991210938	50.28129196166992	-336.3708190917969	-1097.299926757812	522.1343383789062	-100.1277008056641	-1068.488037109375	788.7052001953125	-44.78310012817383	-1230.649047851562	45.0064811706543	-138.2725372314453	-1127.678466796875	399.7020568847656	-102.6558685302734	-999.364990234375	45.82439804077148	-179.3467102050781	-1060.683349609375	51.51316452026367	-209.2053985595703	-1080.993408203125	45.10479736328125	-113.9677734375	-1285.733154296875	46.22817993164062	-184.2593231201172	
145	1.44	-1197.374755859375	1072.763427734375	-128.8338623046875	-1208.169921875	1071.882568359375	-291.8444519042969	-1204.830688476562	1139.215454101562	-216.8958587646484	-970.5533447265625	1317.3671875	-220.8232116699219	-1223.738037109375	1278.291748046875	-217.5688781738281	-1165.62890625	1542.921020507812	-232.8918914794922	-1008.126159667969	1445.5341796875	-226.2255096435547	-1219.576904296875	1409.263427734375	-151.2780151367188	-1183.071655273438	1500.630615234375	-330.4723510742188	-1080.264404296875	1504.354370117188	-405.2961120605469	-1114.340698242188	1378.799926757812	-480.5006103515625	-1123.515869140625	1160.204223632812	-500.3532104492188	-1183.24072265625	1152.609619140625	-412.2496643066406	-1049.83984375	905.4035034179688	-436.4463806152344	-1126.0693359375	893.1881713867188	-480.1212463378906	-1116.505615234375	1043.71826171875	-503.104736328125	-1018.975341796875	725.713623046875	-418.2976989746094	-1096.248779296875	802.6629638671875	-476.2305603027344	-1030.85400390625	811.6646728515625	-448.2994079589844	-1087.498779296875	1530.217651367188	-57.95568084716797	-1102.230224609375	1458.761352539062	15.81457805633545	-1140.453979492188	1189.044311523438	38.128662109375	-1148.769165039062	1162.677856445312	-58.68931579589844	-1017.101318359375	930.0580444335938	-1.780986666679382	-1078.86669921875	913.8136596679688	63.98774719238281	-1127.500244140625	1112.87646484375	51.54267501831055	-1002.138610839844	742.9025268554688	-22.05721664428711	-984.7738037109375	817.8011474609375	7.934091091156006	-1039.444946289062	813.0576782226562	59.13031005859375	-1113.501953125	1724.190673828125	-297.4376525878906	-921.9036254882812	1732.875366210938	-192.6115417480469	-930.9296875	1729.030029296875	-290.8062744140625	-1093.338256835938	1725.196044921875	-154.1926116943359	-1123.515014648438	968.330810546875	-407.1499633789062	-1085.729370117188	957.9921875	-32.88246917724609	-984.7225341796875	986.1298217773438	-114.4890441894531	-1002.059265136719	1006.179748535156	-348.4542541503906	-1084.334594726562	518.77734375	-379.4811706542969	-1110.325561523438	657.841064453125	-408.5200500488281	-1215.281127929688	41.21987915039062	-391.1131591796875	-1184.914306640625	292.4102478027344	-400.2119445800781	-995.5070190429688	41.7694091796875	-328.5333557128906	-1054.849243164062	50.92305374145508	-311.3609619140625	-1090.878295898438	39.19961929321289	-411.8377685546875	-1284.837524414062	50.48817443847656	-336.3232421875	-1096.847534179688	521.8422241210938	-99.26850891113281	-1067.589111328125	788.3772583007812	-43.74425506591797	-1230.732055664062	44.94085311889648	-138.1893920898438	-1127.324462890625	399.4219665527344	-101.9728164672852	-999.4190673828125	45.83655548095703	-179.35986328125	-1060.702514648438	51.52603912353516	-209.1711578369141	-1081.008178710938	45.10695266723633	-113.927375793457	-1285.769287109375	46.17907333374023	-184.134033203125	
